<?xml version="1.0" standalone="no"?><svg xmlns="http://www.w3.org/2000/svg" viewBox="0 0 1440 320"><linearGradient id="grad" x1="0%" y1="0%" x2="0%" y2="100%"><stop offset="0%" style="stop-color:#cccccc;stop-opacity:.3" /><stop offset="100%" style="stop-color:#cccccc;stop-opacity:.1" /></linearGradient><path fill="url(#grad)" fill-opacity="1" d="M0,32L48,74.7C96,117,192,203,288,234.7C384,267,480,245,576,224C672,203,768,181,864,181.3C960,181,1056,203,1152,224C1248,245,1344,267,1392,277.3L1440,288L1440,320L1392,320C1344,320,1248,320,1152,320C1056,320,960,320,864,320C768,320,672,320,576,320C480,320,384,320,288,320C192,320,96,320,48,320L0,320Z"></path></svg>