<?xml version="1.0" standalone="no"?><svg xmlns="http://www.w3.org/2000/svg" viewBox="0 0 1440 320"><linearGradient id="grad" x1="0%" y1="0%" x2="0%" y2="100%"><stop offset="0%" style="stop-color:#ccc;stop-opacity:.3" /><stop offset="100%" style="stop-color:#ccc;stop-opacity:.1" /></linearGradient><path fill="url(#grad)" fill-opacity="1" d="M0,288L48,256C96,224,192,160,288,149.3C384,139,480,181,576,197.3C672,213,768,203,864,170.7C960,139,1056,85,1152,64C1248,43,1344,53,1392,58.7L1440,64L1440,320L1392,320C1344,320,1248,320,1152,320C1056,320,960,320,864,320C768,320,672,320,576,320C480,320,384,320,288,320C192,320,96,320,48,320L0,320Z"></path></svg>