<svg width="1017" height="1311" viewBox="0 0 1017 1311" fill="none" xmlns="http://www.w3.org/2000/svg">
<circle cx="361.373" cy="655.373" r="353.148" transform="rotate(60 361.373 655.373)" stroke="url(#paint0_linear)" stroke-width="2"/>
<circle cx="361.373" cy="655.373" r="500.643" transform="rotate(112.488 361.373 655.373)" stroke="url(#paint1_linear)" stroke-width="2"/>
<g filter="url(#filter0_f)">
<rect x="633.512" y="739.81" width="274" height="38" fill="#FF6376" fill-opacity="0.6"/>
</g>
<g filter="url(#filter1_b)">
<rect x="413.512" y="740.81" width="235" height="108.408" rx="4.13995" fill="white" fill-opacity="0.7"/>
</g>
<line x1="413.512" y1="748.364" x2="648.512" y2="748.364" stroke="#F2F2F2" stroke-width="0.29571"/>
<line x1="413.512" y1="756.065" x2="648.512" y2="756.065" stroke="#F2F2F2" stroke-width="0.29571"/>
<line x1="413.512" y1="763.766" x2="648.512" y2="763.766" stroke="#F2F2F2" stroke-width="0.29571"/>
<line x1="413.512" y1="771.467" x2="648.512" y2="771.467" stroke="#F2F2F2" stroke-width="0.29571"/>
<line x1="413.512" y1="779.168" x2="648.512" y2="779.168" stroke="#F2F2F2" stroke-width="0.29571"/>
<line x1="413.512" y1="786.869" x2="648.512" y2="786.869" stroke="#F2F2F2" stroke-width="0.29571"/>
<line x1="413.512" y1="794.57" x2="648.512" y2="794.57" stroke="#F2F2F2" stroke-width="0.29571"/>
<line x1="413.512" y1="802.271" x2="648.512" y2="802.271" stroke="#F2F2F2" stroke-width="0.29571"/>
<line x1="413.512" y1="809.972" x2="648.512" y2="809.972" stroke="#F2F2F2" stroke-width="0.29571"/>
<line x1="413.512" y1="817.673" x2="648.512" y2="817.673" stroke="#F2F2F2" stroke-width="0.29571"/>
<line x1="413.512" y1="825.374" x2="648.512" y2="825.375" stroke="#F2F2F2" stroke-width="0.29571"/>
<line x1="413.512" y1="833.076" x2="648.512" y2="833.076" stroke="#F2F2F2" stroke-width="0.29571"/>
<line x1="413.512" y1="840.777" x2="648.512" y2="840.777" stroke="#F2F2F2" stroke-width="0.29571"/>
<line x1="413.512" y1="848.478" x2="648.512" y2="848.478" stroke="#F2F2F2" stroke-width="0.29571"/>
<mask id="mask0" mask-type="alpha" maskUnits="userSpaceOnUse" x="416" y="744" width="230" height="105">
<rect x="416.512" y="744.81" width="229" height="104" rx="3.86637" fill="white"/>
</mask>
<g mask="url(#mask0)">
<path d="M467.434 806.761C458.458 809.261 430.322 791.322 417.376 782.04L409.321 779.766L394.648 795.395L405.005 838.302L409.321 866.717L465.132 879.504L556.905 888.029L625.375 875.242L663.062 861.602V804.772L648.102 786.018C646.664 782.892 617.607 773.799 603.798 773.231C589.989 772.663 568.125 819.052 547.699 819.827C527.273 820.603 515.765 793.685 505.121 792.265C494.476 790.844 478.653 803.635 467.434 806.761Z" fill="url(#paint2_linear)" stroke="#FF6376" stroke-width="1.10468"/>
</g>
<g filter="url(#filter2_d)">
<rect x="419.512" y="746.218" width="61" height="13" rx="2.3057" fill="white"/>
</g>
<rect x="422.512" y="751.218" width="27" height="4" fill="#E0E0E0"/>
<g filter="url(#filter3_d)">
<rect x="487.512" y="746.218" width="61" height="13" rx="2.3057" fill="white"/>
</g>
<rect x="489.512" y="751.218" width="41" height="4" fill="#E0E0E0"/>
<path d="M472.512 752.218L474.512 754.218L476.512 752.218" stroke="#E0E0E0" stroke-width="1.33333" stroke-linecap="round" stroke-linejoin="round"/>
<path d="M540.512 752.218L542.512 754.218L544.512 752.218" stroke="#E0E0E0" stroke-width="1.33333" stroke-linecap="round" stroke-linejoin="round"/>
<g filter="url(#filter4_d)">
<rect x="314.406" y="427.637" width="244" height="275" rx="7" fill="white"/>
</g>
<g filter="url(#filter5_d)">
<path d="M349.424 567.682C359.928 567.682 368.442 562.837 368.442 556.861C368.442 550.885 359.928 546.041 349.424 546.041C338.921 546.041 330.406 550.885 330.406 556.861C330.406 562.837 338.921 567.682 349.424 567.682Z" fill="#F8D7A6"/>
<path d="M349.424 567.682C338.921 567.682 330.406 562.828 330.406 556.861V629.899C330.406 635.866 338.921 640.72 349.424 640.72C359.928 640.72 368.442 635.866 368.442 629.899V556.861C368.442 562.828 359.928 567.682 349.424 567.682Z" fill="#FFC163"/>
<path d="M401.385 530.685C411.888 530.685 420.403 525.841 420.403 519.865C420.403 513.889 411.888 509.044 401.385 509.044C390.882 509.044 382.367 513.889 382.367 519.865C382.367 525.841 390.882 530.685 401.385 530.685Z" fill="#9585DE"/>
<path d="M401.385 530.685C390.882 530.685 382.367 525.832 382.367 519.865V629.899C382.367 635.866 390.882 640.72 401.385 640.72C411.889 640.72 420.403 635.866 420.403 629.899V519.865C420.403 525.832 411.889 530.685 401.385 530.685Z" fill="#7761DF"/>
<path d="M453.428 553.599C463.931 553.599 472.446 548.755 472.446 542.779C472.446 536.803 463.931 531.958 453.428 531.958C442.925 531.958 434.41 536.803 434.41 542.779C434.41 548.755 442.925 553.599 453.428 553.599Z" fill="#FF97A4"/>
<path d="M453.428 553.599C442.924 553.599 434.41 548.746 434.41 542.779V629.899C434.41 635.866 442.924 640.72 453.428 640.72C463.932 640.72 472.446 635.866 472.446 629.899V542.779C472.446 548.746 463.932 553.599 453.428 553.599Z" fill="#FF6376"/>
<path d="M505.389 471.278C515.892 471.278 524.407 466.433 524.407 460.457C524.407 454.481 515.892 449.637 505.389 449.637C494.886 449.637 486.371 454.481 486.371 460.457C486.371 466.433 494.886 471.278 505.389 471.278Z" fill="#A4E9F2"/>
<path d="M505.445 471.19C494.973 471.19 486.484 465.336 486.484 458.138V627.726C486.484 634.924 494.973 640.778 505.445 640.778C515.916 640.778 524.405 634.924 524.405 627.726V458.138C524.405 465.336 515.916 471.19 505.445 471.19Z" fill="#51DBEE"/>
<path d="M367.883 674.932V658.462C367.883 656.951 366.689 655.757 365.177 655.757H353.878C353.003 655.757 352.207 655.359 351.65 654.564L350.456 652.813C349.979 652.097 348.944 652.097 348.467 652.813L347.273 654.564C346.796 655.28 345.921 655.757 345.045 655.757H333.666C332.155 655.757 330.961 656.951 330.961 658.462V674.932C330.961 676.443 332.155 677.637 333.666 677.637H365.177C366.689 677.637 367.883 676.443 367.883 674.932Z" fill="#E2E2E2"/>
<path d="M419.848 674.932V658.462C419.848 656.951 418.654 655.757 417.142 655.757H405.843C404.968 655.757 404.172 655.359 403.615 654.564L402.421 652.813C401.944 652.097 400.909 652.097 400.432 652.813L399.238 654.564C398.761 655.28 397.886 655.757 397.01 655.757H385.631C384.119 655.757 382.926 656.951 382.926 658.462V674.932C382.926 676.443 384.119 677.637 385.631 677.637H417.142C418.654 677.637 419.848 676.443 419.848 674.932Z" fill="#E2E2E2"/>
<path d="M471.806 674.932V658.462C471.806 656.951 470.613 655.757 469.101 655.757H457.722C456.846 655.757 456.051 655.359 455.494 654.564L454.3 652.813C453.823 652.097 452.788 652.097 452.311 652.813L451.117 654.564C450.64 655.28 449.764 655.757 448.889 655.757H437.51C435.998 655.757 434.805 656.951 434.805 658.462V674.932C434.805 676.443 435.998 677.637 437.51 677.637H469.021C470.613 677.637 471.806 676.443 471.806 674.932Z" fill="#E2E2E2"/>
<path d="M523.849 674.932V658.462C523.849 656.951 522.656 655.757 521.144 655.757H509.765C508.889 655.757 508.094 655.359 507.537 654.564L506.343 652.813C505.866 652.097 504.831 652.097 504.354 652.813L503.16 654.564C502.683 655.28 501.807 655.757 500.932 655.757H489.553C488.041 655.757 486.848 656.951 486.848 658.462V674.932C486.848 676.443 488.041 677.637 489.553 677.637H521.064C522.656 677.637 523.849 676.443 523.849 674.932Z" fill="#E2E2E2"/>
<path d="M351.676 670.778H346.906L346.114 673.1H342.874L347.536 660.464H351.082L355.744 673.1H352.468L351.676 670.778ZM350.884 668.438L349.3 663.758L347.698 668.438H350.884Z" fill="white"/>
<path d="M404.396 666.548C405.164 666.728 405.77 667.1 406.214 667.664C406.67 668.228 406.898 668.882 406.898 669.626C406.898 670.718 406.532 671.57 405.8 672.182C405.08 672.794 404.042 673.1 402.686 673.1H396.764V660.374H402.542C403.838 660.374 404.84 660.656 405.548 661.22C406.256 661.784 406.61 662.588 406.61 663.632C406.61 664.4 406.406 665.042 405.998 665.558C405.59 666.062 405.056 666.392 404.396 666.548ZM399.842 665.576H401.858C402.926 665.576 403.46 665.12 403.46 664.208C403.46 663.296 402.914 662.84 401.822 662.84H399.842V665.576ZM402.038 670.598C403.178 670.598 403.748 670.13 403.748 669.194C403.748 668.738 403.598 668.384 403.298 668.132C402.998 667.868 402.572 667.736 402.02 667.736H399.842V670.598H402.038Z" fill="white"/>
<path d="M453.295 660.248C454.915 660.248 456.253 660.674 457.309 661.526C458.377 662.378 459.067 663.53 459.379 664.982H456.121C455.881 664.394 455.509 663.932 455.005 663.596C454.513 663.26 453.925 663.092 453.241 663.092C452.341 663.092 451.615 663.422 451.063 664.082C450.511 664.742 450.235 665.624 450.235 666.728C450.235 667.832 450.511 668.714 451.063 669.374C451.615 670.022 452.341 670.346 453.241 670.346C453.925 670.346 454.513 670.178 455.005 669.842C455.509 669.506 455.881 669.05 456.121 668.474H459.379C459.067 669.914 458.377 671.066 457.309 671.93C456.253 672.782 454.915 673.208 453.295 673.208C452.059 673.208 450.973 672.938 450.037 672.398C449.101 671.846 448.375 671.078 447.859 670.094C447.355 669.11 447.103 667.988 447.103 666.728C447.103 665.468 447.355 664.346 447.859 663.362C448.375 662.378 449.101 661.616 450.037 661.076C450.973 660.524 452.059 660.248 453.295 660.248Z" fill="white"/>
<path d="M511.417 670.71C511.417 671.958 511.147 673.068 510.607 674.04C510.079 675 509.311 675.75 508.303 676.29C507.307 676.83 506.131 677.1 504.775 677.1H499.969V664.374H504.775C506.143 664.374 507.325 664.638 508.321 665.166C509.317 665.694 510.079 666.438 510.607 667.398C511.147 668.358 511.417 669.462 511.417 670.71ZM504.505 674.346C505.705 674.346 506.635 674.028 507.295 673.392C507.967 672.756 508.303 671.862 508.303 670.71C508.303 669.558 507.967 668.664 507.295 668.028C506.635 667.392 505.705 667.074 504.505 667.074H503.047V674.346H504.505Z" fill="white"/>
</g>
<rect x="330.406" y="439.637" width="93" height="7" fill="#E0E0E0"/>
<rect x="330.406" y="450.637" width="142" height="7" fill="#E0E0E0"/>
<rect x="330.406" y="461.637" width="142" height="7" fill="#E0E0E0"/>
<rect x="330.406" y="472.637" width="42" height="7" fill="#E0E0E0"/>
<g filter="url(#filter6_d)">
<rect x="535.512" y="496.81" width="406" height="275" rx="7" fill="#FF6376"/>
</g>
<path d="M588.512 666.81C588.512 664.049 590.75 661.81 593.512 661.81H601.324C603.533 661.81 605.324 663.601 605.324 665.81V749.81H588.512V666.81Z" fill="white"/>
<path d="M620.512 636.81C620.512 634.049 622.75 631.81 625.512 631.81H633.324C635.533 631.81 637.324 633.601 637.324 635.81V749.81H620.512V636.81Z" fill="white"/>
<path d="M653.512 605.81C653.512 603.049 655.75 600.81 658.512 600.81H666.324C668.533 600.81 670.324 602.601 670.324 604.81V749.81H653.512V605.81Z" fill="white"/>
<path d="M685.512 570.81C685.512 568.049 687.75 565.81 690.512 565.81H698.324C700.533 565.81 702.324 567.601 702.324 569.81V749.81H685.512V570.81Z" fill="white"/>
<path d="M718.512 578.81C718.512 576.049 720.75 573.81 723.512 573.81H731.324C733.533 573.81 735.324 575.601 735.324 577.81V749.81H718.512V578.81Z" fill="white"/>
<path d="M750.512 589.81C750.512 587.049 752.75 584.81 755.512 584.81H763.324C765.533 584.81 767.324 586.601 767.324 588.81V749.81H750.512V589.81Z" fill="white"/>
<path d="M783.512 605.81C783.512 603.049 785.75 600.81 788.512 600.81H796.324C798.533 600.81 800.324 602.601 800.324 604.81V749.81H783.512V605.81Z" fill="white"/>
<path d="M815.512 584.81C815.512 582.049 817.75 579.81 820.512 579.81H828.324C830.533 579.81 832.324 581.601 832.324 583.81V749.81H815.512V584.81Z" fill="white"/>
<path d="M847.512 564.81C847.512 562.049 849.75 559.81 852.512 559.81H860.324C862.533 559.81 864.324 561.601 864.324 563.81V749.81H847.512V564.81Z" fill="white"/>
<path d="M880.512 526.81C880.512 524.049 882.75 521.81 885.512 521.81H893.324C895.533 521.81 897.324 523.601 897.324 525.81V749.81H880.512V526.81Z" fill="white"/>
<path d="M912.512 545.81C912.512 543.049 914.75 540.81 917.512 540.81H925.324C927.533 540.81 929.324 542.601 929.324 544.81V749.81H912.512V545.81Z" fill="white"/>
<line x1="572.012" y1="514.81" x2="572.012" y2="748.81" stroke="white"/>
<path d="M549.272 529.632C549.338 530.094 549.499 530.45 549.756 530.699C550.012 530.949 550.364 531.073 550.812 531.073C551.428 531.073 551.893 530.835 552.209 530.358C552.524 529.882 552.682 529.126 552.682 528.092C552.682 527.894 552.678 527.744 552.671 527.641C552.568 528.081 552.319 528.433 551.923 528.697C551.527 528.961 551.061 529.093 550.526 529.093C549.756 529.093 549.151 528.862 548.711 528.4C548.271 527.938 548.051 527.293 548.051 526.464C548.051 525.98 548.146 525.54 548.337 525.144C548.527 524.748 548.817 524.437 549.206 524.209C549.602 523.975 550.089 523.857 550.669 523.857C551.783 523.857 552.546 524.202 552.957 524.891C553.375 525.573 553.584 526.512 553.584 527.707C553.584 529.071 553.371 530.113 552.946 530.831C552.52 531.543 551.809 531.898 550.812 531.898C550.071 531.898 549.488 531.689 549.063 531.271C548.645 530.846 548.399 530.3 548.326 529.632H549.272ZM552.572 526.618C552.572 526.09 552.414 525.643 552.099 525.276C551.791 524.91 551.325 524.726 550.702 524.726C550.188 524.726 549.778 524.88 549.47 525.188C549.162 525.496 549.008 525.925 549.008 526.475C549.008 527.062 549.162 527.513 549.47 527.828C549.778 528.144 550.199 528.301 550.735 528.301C551.043 528.301 551.336 528.239 551.615 528.114C551.901 527.99 552.132 527.799 552.308 527.542C552.484 527.286 552.572 526.978 552.572 526.618ZM554.831 527.883C554.831 529.13 555.036 530.102 555.447 530.798C555.858 531.495 556.569 531.843 557.581 531.843C558.593 531.843 559.304 531.495 559.715 530.798C560.133 530.102 560.342 529.13 560.342 527.883C560.342 526.651 560.133 525.687 559.715 524.99C559.304 524.294 558.593 523.945 557.581 523.945C556.569 523.945 555.858 524.294 555.447 524.99C555.036 525.68 554.831 526.644 554.831 527.883ZM559.352 527.883C559.352 528.521 559.304 529.057 559.209 529.489C559.121 529.915 558.949 530.256 558.692 530.512C558.435 530.769 558.065 530.897 557.581 530.897C557.104 530.897 556.738 530.769 556.481 530.512C556.224 530.256 556.048 529.915 555.953 529.489C555.865 529.057 555.821 528.521 555.821 527.883C555.821 527.253 555.865 526.725 555.953 526.299C556.048 525.874 556.224 525.537 556.481 525.287C556.738 525.031 557.104 524.902 557.581 524.902C558.065 524.902 558.435 525.031 558.692 525.287C558.949 525.537 559.121 525.874 559.209 526.299C559.304 526.725 559.352 527.253 559.352 527.883ZM548.293 550.881C548.293 550.5 548.395 550.152 548.601 549.836C548.806 549.521 549.11 549.272 549.514 549.088C549.917 548.905 550.397 548.813 550.955 548.813C551.512 548.813 551.989 548.905 552.385 549.088C552.788 549.272 553.092 549.521 553.298 549.836C553.503 550.152 553.606 550.5 553.606 550.881C553.606 551.314 553.488 551.688 553.254 552.003C553.019 552.319 552.663 552.542 552.187 552.674C552.7 552.814 553.1 553.056 553.386 553.4C553.672 553.745 553.815 554.17 553.815 554.676C553.815 555.41 553.554 555.985 553.034 556.403C552.513 556.821 551.82 557.03 550.955 557.03C550.089 557.03 549.396 556.821 548.876 556.403C548.355 555.985 548.095 555.41 548.095 554.676C548.095 554.17 548.234 553.745 548.513 553.4C548.799 553.056 549.198 552.814 549.712 552.674C549.235 552.542 548.879 552.319 548.645 552.003C548.41 551.688 548.293 551.314 548.293 550.881ZM549.283 551.024C549.283 551.464 549.433 551.805 549.734 552.047C550.034 552.282 550.441 552.399 550.955 552.399C551.468 552.399 551.871 552.282 552.165 552.047C552.465 551.805 552.616 551.464 552.616 551.024C552.616 550.584 552.465 550.247 552.165 550.012C551.864 549.77 551.461 549.649 550.955 549.649C550.449 549.649 550.042 549.77 549.734 550.012C549.433 550.247 549.283 550.584 549.283 551.024ZM549.074 554.621C549.074 555.12 549.242 555.509 549.58 555.787C549.917 556.059 550.375 556.194 550.955 556.194C551.527 556.194 551.981 556.055 552.319 555.776C552.656 555.498 552.825 555.113 552.825 554.621C552.825 554.123 552.649 553.745 552.297 553.488C551.945 553.232 551.497 553.103 550.955 553.103C550.405 553.103 549.954 553.232 549.602 553.488C549.25 553.745 549.074 554.123 549.074 554.621ZM555.014 552.883C555.014 554.13 555.219 555.102 555.63 555.798C556.04 556.495 556.752 556.843 557.764 556.843C558.776 556.843 559.487 556.495 559.898 555.798C560.316 555.102 560.525 554.13 560.525 552.883C560.525 551.651 560.316 550.687 559.898 549.99C559.487 549.294 558.776 548.945 557.764 548.945C556.752 548.945 556.04 549.294 555.63 549.99C555.219 550.68 555.014 551.644 555.014 552.883ZM559.535 552.883C559.535 553.521 559.487 554.057 559.392 554.489C559.304 554.915 559.131 555.256 558.875 555.512C558.618 555.769 558.248 555.897 557.764 555.897C557.287 555.897 556.92 555.769 556.664 555.512C556.407 555.256 556.231 554.915 556.136 554.489C556.048 554.057 556.004 553.521 556.004 552.883C556.004 552.253 556.048 551.725 556.136 551.299C556.231 550.874 556.407 550.537 556.664 550.287C556.92 550.031 557.287 549.902 557.764 549.902C558.248 549.902 558.618 550.031 558.875 550.287C559.131 550.537 559.304 550.874 559.392 551.299C559.487 551.725 559.535 552.253 559.535 552.883ZM552.748 574.781L549.811 581.81H548.755L551.736 574.88H547.666V574.011H552.748V574.781ZM553.703 577.883C553.703 579.13 553.909 580.102 554.319 580.798C554.73 581.495 555.441 581.843 556.453 581.843C557.465 581.843 558.177 581.495 558.587 580.798C559.005 580.102 559.214 579.13 559.214 577.883C559.214 576.651 559.005 575.687 558.587 574.99C558.177 574.294 557.465 573.945 556.453 573.945C555.441 573.945 554.73 574.294 554.319 574.99C553.909 575.68 553.703 576.644 553.703 577.883ZM558.224 577.883C558.224 578.521 558.177 579.057 558.081 579.489C557.993 579.915 557.821 580.256 557.564 580.512C557.308 580.769 556.937 580.897 556.453 580.897C555.977 580.897 555.61 580.769 555.353 580.512C555.097 580.256 554.921 579.915 554.825 579.489C554.737 579.057 554.693 578.521 554.693 577.883C554.693 577.253 554.737 576.725 554.825 576.299C554.921 575.874 555.097 575.537 555.353 575.287C555.61 575.031 555.977 574.902 556.453 574.902C556.937 574.902 557.308 575.031 557.564 575.287C557.821 575.537 557.993 575.874 558.081 576.299C558.177 576.725 558.224 577.253 558.224 577.883ZM552.517 601.123C552.458 600.661 552.3 600.306 552.044 600.056C551.794 599.8 551.446 599.671 550.999 599.671C550.375 599.671 549.902 599.913 549.58 600.397C549.264 600.881 549.107 601.648 549.107 602.696L549.118 603.103C549.228 602.663 549.481 602.315 549.877 602.058C550.273 601.794 550.738 601.662 551.274 601.662C552.044 601.662 552.645 601.893 553.078 602.355C553.518 602.817 553.738 603.463 553.738 604.291C553.738 604.775 553.642 605.215 553.452 605.611C553.261 606 552.968 606.312 552.572 606.546C552.183 606.774 551.699 606.887 551.12 606.887C550.012 606.887 549.25 606.539 548.832 605.842C548.421 605.146 548.216 604.2 548.216 603.004C548.216 601.626 548.436 600.592 548.876 599.902C549.323 599.206 550.049 598.857 551.054 598.857C551.794 598.857 552.363 599.066 552.759 599.484C553.162 599.902 553.4 600.449 553.474 601.123H552.517ZM549.228 604.126C549.228 604.662 549.382 605.113 549.69 605.479C550.005 605.839 550.474 606.018 551.098 606.018C551.611 606.018 552.022 605.868 552.33 605.567C552.638 605.259 552.792 604.83 552.792 604.28C552.792 603.686 552.638 603.235 552.33 602.927C552.022 602.612 551.596 602.454 551.054 602.454C550.746 602.454 550.452 602.517 550.174 602.641C549.895 602.766 549.668 602.957 549.492 603.213C549.316 603.463 549.228 603.767 549.228 604.126ZM554.971 602.883C554.971 604.13 555.176 605.102 555.587 605.798C555.997 606.495 556.709 606.843 557.721 606.843C558.733 606.843 559.444 606.495 559.855 605.798C560.273 605.102 560.482 604.13 560.482 602.883C560.482 601.651 560.273 600.687 559.855 599.99C559.444 599.294 558.733 598.945 557.721 598.945C556.709 598.945 555.997 599.294 555.587 599.99C555.176 600.68 554.971 601.644 554.971 602.883ZM559.492 602.883C559.492 603.521 559.444 604.057 559.349 604.489C559.261 604.915 559.088 605.256 558.832 605.512C558.575 605.769 558.205 605.897 557.721 605.897C557.244 605.897 556.877 605.769 556.621 605.512C556.364 605.256 556.188 604.915 556.093 604.489C556.005 604.057 555.961 603.521 555.961 602.883C555.961 602.253 556.005 601.725 556.093 601.299C556.188 600.874 556.364 600.537 556.621 600.287C556.877 600.031 557.244 599.902 557.721 599.902C558.205 599.902 558.575 600.031 558.832 600.287C559.088 600.537 559.261 600.874 559.349 601.299C559.444 601.725 559.492 602.253 559.492 602.883ZM553.364 624.847H549.382V627.443C549.565 627.194 549.829 626.996 550.174 626.849C550.518 626.703 550.896 626.629 551.307 626.629C551.857 626.629 552.311 626.747 552.671 626.981C553.037 627.209 553.305 627.513 553.474 627.894C553.65 628.268 553.738 628.686 553.738 629.148C553.738 629.948 553.514 630.6 553.067 631.106C552.619 631.612 551.963 631.865 551.098 631.865C550.32 631.865 549.686 631.656 549.195 631.238C548.703 630.813 548.428 630.245 548.37 629.533H549.36C549.44 629.988 549.627 630.344 549.921 630.6C550.221 630.85 550.599 630.974 551.054 630.974C551.618 630.974 552.044 630.806 552.33 630.468C552.616 630.131 552.759 629.687 552.759 629.137C552.759 628.602 552.612 628.184 552.319 627.883C552.025 627.583 551.611 627.432 551.076 627.432C550.694 627.432 550.361 627.517 550.075 627.685C549.789 627.847 549.572 628.067 549.426 628.345H548.458V623.956H553.364V624.847ZM554.917 627.883C554.917 629.13 555.122 630.102 555.533 630.798C555.944 631.495 556.655 631.843 557.667 631.843C558.679 631.843 559.39 631.495 559.801 630.798C560.219 630.102 560.428 629.13 560.428 627.883C560.428 626.651 560.219 625.687 559.801 624.99C559.39 624.294 558.679 623.945 557.667 623.945C556.655 623.945 555.944 624.294 555.533 624.99C555.122 625.68 554.917 626.644 554.917 627.883ZM559.438 627.883C559.438 628.521 559.39 629.057 559.295 629.489C559.207 629.915 559.035 630.256 558.778 630.512C558.521 630.769 558.151 630.897 557.667 630.897C557.19 630.897 556.824 630.769 556.567 630.512C556.31 630.256 556.134 629.915 556.039 629.489C555.951 629.057 555.907 628.521 555.907 627.883C555.907 627.253 555.951 626.725 556.039 626.299C556.134 625.874 556.31 625.537 556.567 625.287C556.824 625.031 557.19 624.902 557.667 624.902C558.151 624.902 558.521 625.031 558.778 625.287C559.035 625.537 559.207 625.874 559.295 626.299C559.39 626.725 559.438 627.253 559.438 627.883ZM547.853 655.028V654.192L551.835 649H552.913V654.159H554.057V655.028H552.913V656.81H551.901V655.028H547.853ZM551.967 650.221L548.909 654.159H551.967V650.221ZM554.96 652.883C554.96 654.13 555.165 655.102 555.576 655.798C555.987 656.495 556.698 656.843 557.71 656.843C558.722 656.843 559.433 656.495 559.844 655.798C560.262 655.102 560.471 654.13 560.471 652.883C560.471 651.651 560.262 650.687 559.844 649.99C559.433 649.294 558.722 648.945 557.71 648.945C556.698 648.945 555.987 649.294 555.576 649.99C555.165 650.68 554.96 651.644 554.96 652.883ZM559.481 652.883C559.481 653.521 559.433 654.057 559.338 654.489C559.25 654.915 559.078 655.256 558.821 655.512C558.564 655.769 558.194 655.897 557.71 655.897C557.233 655.897 556.867 655.769 556.61 655.512C556.353 655.256 556.177 654.915 556.082 654.489C555.994 654.057 555.95 653.521 555.95 652.883C555.95 652.253 555.994 651.725 556.082 651.299C556.177 650.874 556.353 650.537 556.61 650.287C556.867 650.031 557.233 649.902 557.71 649.902C558.194 649.902 558.564 650.031 558.821 650.287C559.078 650.537 559.25 650.874 559.338 651.299C559.433 651.725 559.481 652.253 559.481 652.883ZM550.801 673.846C551.299 673.846 551.728 673.934 552.088 674.11C552.447 674.286 552.718 674.528 552.902 674.836C553.085 675.144 553.177 675.493 553.177 675.881C553.177 676.365 553.034 676.772 552.748 677.102C552.469 677.432 552.058 677.63 551.516 677.696V677.762C552.08 677.909 552.52 678.136 552.836 678.444C553.158 678.752 553.32 679.178 553.32 679.72C553.32 680.358 553.107 680.879 552.682 681.282C552.256 681.686 551.644 681.887 550.845 681.887C550.045 681.887 549.396 681.682 548.898 681.271C548.406 680.853 548.117 680.245 548.029 679.445H549.019C549.085 679.929 549.268 680.314 549.569 680.6C549.877 680.886 550.291 681.029 550.812 681.029C551.303 681.029 551.681 680.905 551.945 680.655C552.209 680.399 552.341 680.069 552.341 679.665C552.341 679.181 552.15 678.815 551.769 678.565C551.395 678.309 550.859 678.18 550.163 678.18H549.899V677.344H550.163C551.512 677.344 552.187 676.893 552.187 675.991C552.187 675.595 552.062 675.28 551.813 675.045C551.563 674.811 551.219 674.693 550.779 674.693C550.339 674.693 549.968 674.822 549.668 675.078C549.367 675.328 549.191 675.698 549.14 676.189H548.161C548.212 675.456 548.465 674.884 548.92 674.473C549.382 674.055 550.009 673.846 550.801 673.846ZM554.616 677.883C554.616 679.13 554.822 680.102 555.232 680.798C555.643 681.495 556.354 681.843 557.366 681.843C558.378 681.843 559.09 681.495 559.5 680.798C559.918 680.102 560.127 679.13 560.127 677.883C560.127 676.651 559.918 675.687 559.5 674.99C559.09 674.294 558.378 673.945 557.366 673.945C556.354 673.945 555.643 674.294 555.232 674.99C554.822 675.68 554.616 676.644 554.616 677.883ZM559.137 677.883C559.137 678.521 559.09 679.057 558.994 679.489C558.906 679.915 558.734 680.256 558.477 680.512C558.221 680.769 557.85 680.897 557.366 680.897C556.89 680.897 556.523 680.769 556.266 680.512C556.01 680.256 555.834 679.915 555.738 679.489C555.65 679.057 555.606 678.521 555.606 677.883C555.606 677.253 555.65 676.725 555.738 676.299C555.834 675.874 556.01 675.537 556.266 675.287C556.523 675.031 556.89 674.902 557.366 674.902C557.85 674.902 558.221 675.031 558.477 675.287C558.734 675.537 558.906 675.874 558.994 676.299C559.09 676.725 559.137 677.253 559.137 677.883ZM547.974 706.04C549.22 705.204 550.218 704.376 550.966 703.554C551.714 702.726 552.088 701.956 552.088 701.244C552.088 700.804 551.974 700.452 551.747 700.188C551.527 699.917 551.167 699.781 550.669 699.781C550.155 699.781 549.767 699.946 549.503 700.276C549.239 700.599 549.092 701.046 549.063 701.618H548.073C548.124 700.753 548.392 700.089 548.876 699.627C549.36 699.158 549.983 698.923 550.746 698.923C551.472 698.923 552.047 699.118 552.473 699.506C552.898 699.895 553.111 700.445 553.111 701.156C553.111 701.743 552.92 702.341 552.539 702.949C552.165 703.551 551.692 704.112 551.12 704.632C550.555 705.146 549.972 705.582 549.371 705.941H553.309V706.766H547.974V706.04ZM554.38 702.883C554.38 704.13 554.585 705.102 554.996 705.798C555.407 706.495 556.118 706.843 557.13 706.843C558.142 706.843 558.853 706.495 559.264 705.798C559.682 705.102 559.891 704.13 559.891 702.883C559.891 701.651 559.682 700.687 559.264 699.99C558.853 699.294 558.142 698.945 557.13 698.945C556.118 698.945 555.407 699.294 554.996 699.99C554.585 700.68 554.38 701.644 554.38 702.883ZM558.901 702.883C558.901 703.521 558.853 704.057 558.758 704.489C558.67 704.915 558.498 705.256 558.241 705.512C557.984 705.769 557.614 705.897 557.13 705.897C556.653 705.897 556.287 705.769 556.03 705.512C555.773 705.256 555.597 704.915 555.502 704.489C555.414 704.057 555.37 703.521 555.37 702.883C555.37 702.253 555.414 701.725 555.502 701.299C555.597 700.874 555.773 700.537 556.03 700.287C556.287 700.031 556.653 699.902 557.13 699.902C557.614 699.902 557.984 700.031 558.241 700.287C558.498 700.537 558.67 700.874 558.758 701.299C558.853 701.725 558.901 702.253 558.901 702.883ZM547.655 724.99V724.055H549.877V731.81H548.821V724.99H547.655ZM551.297 727.883C551.297 729.13 551.502 730.102 551.913 730.798C552.324 731.495 553.035 731.843 554.047 731.843C555.059 731.843 555.77 731.495 556.181 730.798C556.599 730.102 556.808 729.13 556.808 727.883C556.808 726.651 556.599 725.687 556.181 724.99C555.77 724.294 555.059 723.945 554.047 723.945C553.035 723.945 552.324 724.294 551.913 724.99C551.502 725.68 551.297 726.644 551.297 727.883ZM555.818 727.883C555.818 728.521 555.77 729.057 555.675 729.489C555.587 729.915 555.415 730.256 555.158 730.512C554.901 730.769 554.531 730.897 554.047 730.897C553.57 730.897 553.204 730.769 552.947 730.512C552.69 730.256 552.514 729.915 552.419 729.489C552.331 729.057 552.287 728.521 552.287 727.883C552.287 727.253 552.331 726.725 552.419 726.299C552.514 725.874 552.69 725.537 552.947 725.287C553.204 725.031 553.57 724.902 554.047 724.902C554.531 724.902 554.901 725.031 555.158 725.287C555.415 725.537 555.587 725.874 555.675 726.299C555.77 726.725 555.818 727.253 555.818 727.883ZM548.139 752.883C548.139 754.13 548.344 755.102 548.755 755.798C549.165 756.495 549.877 756.843 550.889 756.843C551.901 756.843 552.612 756.495 553.023 755.798C553.441 755.102 553.65 754.13 553.65 752.883C553.65 751.651 553.441 750.687 553.023 749.99C552.612 749.294 551.901 748.945 550.889 748.945C549.877 748.945 549.165 749.294 548.755 749.99C548.344 750.68 548.139 751.644 548.139 752.883ZM552.66 752.883C552.66 753.521 552.612 754.057 552.517 754.489C552.429 754.915 552.256 755.256 552 755.512C551.743 755.769 551.373 755.897 550.889 755.897C550.412 755.897 550.045 755.769 549.789 755.512C549.532 755.256 549.356 754.915 549.261 754.489C549.173 754.057 549.129 753.521 549.129 752.883C549.129 752.253 549.173 751.725 549.261 751.299C549.356 750.874 549.532 750.537 549.789 750.287C550.045 750.031 550.412 749.902 550.889 749.902C551.373 749.902 551.743 750.031 552 750.287C552.256 750.537 552.429 750.874 552.517 751.299C552.612 751.725 552.66 752.253 552.66 752.883Z" fill="white"/>
<defs>
<filter id="filter0_f" x="611.512" y="717.81" width="318" height="82" filterUnits="userSpaceOnUse" color-interpolation-filters="sRGB">
<feFlood flood-opacity="0" result="BackgroundImageFix"/>
<feBlend mode="normal" in="SourceGraphic" in2="BackgroundImageFix" result="shape"/>
<feGaussianBlur stdDeviation="11" result="effect1_foregroundBlur"/>
</filter>
<filter id="filter1_b" x="389.512" y="716.81" width="283" height="156.408" filterUnits="userSpaceOnUse" color-interpolation-filters="sRGB">
<feFlood flood-opacity="0" result="BackgroundImageFix"/>
<feGaussianBlur in="BackgroundImage" stdDeviation="12"/>
<feComposite in2="SourceAlpha" operator="in" result="effect1_backgroundBlur"/>
<feBlend mode="normal" in="SourceGraphic" in2="effect1_backgroundBlur" result="shape"/>
</filter>
<filter id="filter2_d" x="409.63" y="737.302" width="80.7631" height="32.7631" filterUnits="userSpaceOnUse" color-interpolation-filters="sRGB">
<feFlood flood-opacity="0" result="BackgroundImageFix"/>
<feColorMatrix in="SourceAlpha" type="matrix" values="0 0 0 0 0 0 0 0 0 0 0 0 0 0 0 0 0 0 127 0"/>
<feOffset dy="0.965099"/>
<feGaussianBlur stdDeviation="4.94078"/>
<feColorMatrix type="matrix" values="0 0 0 0 0 0 0 0 0 0 0 0 0 0 0 0 0 0 0.15 0"/>
<feBlend mode="normal" in2="BackgroundImageFix" result="effect1_dropShadow"/>
<feBlend mode="normal" in="SourceGraphic" in2="effect1_dropShadow" result="shape"/>
</filter>
<filter id="filter3_d" x="477.63" y="737.302" width="80.7631" height="32.7631" filterUnits="userSpaceOnUse" color-interpolation-filters="sRGB">
<feFlood flood-opacity="0" result="BackgroundImageFix"/>
<feColorMatrix in="SourceAlpha" type="matrix" values="0 0 0 0 0 0 0 0 0 0 0 0 0 0 0 0 0 0 127 0"/>
<feOffset dy="0.965099"/>
<feGaussianBlur stdDeviation="4.94078"/>
<feColorMatrix type="matrix" values="0 0 0 0 0 0 0 0 0 0 0 0 0 0 0 0 0 0 0.15 0"/>
<feBlend mode="normal" in2="BackgroundImageFix" result="effect1_dropShadow"/>
<feBlend mode="normal" in="SourceGraphic" in2="effect1_dropShadow" result="shape"/>
</filter>
<filter id="filter4_d" x="279.406" y="396.637" width="314" height="345" filterUnits="userSpaceOnUse" color-interpolation-filters="sRGB">
<feFlood flood-opacity="0" result="BackgroundImageFix"/>
<feColorMatrix in="SourceAlpha" type="matrix" values="0 0 0 0 0 0 0 0 0 0 0 0 0 0 0 0 0 0 127 0"/>
<feOffset dy="4"/>
<feGaussianBlur stdDeviation="17.5"/>
<feColorMatrix type="matrix" values="0 0 0 0 0 0 0 0 0 0 0 0 0 0 0 0 0 0 0.1 0"/>
<feBlend mode="normal" in2="BackgroundImageFix" result="effect1_dropShadow"/>
<feBlend mode="normal" in="SourceGraphic" in2="effect1_dropShadow" result="shape"/>
</filter>
<filter id="filter5_d" x="319.406" y="442.637" width="216.001" height="250" filterUnits="userSpaceOnUse" color-interpolation-filters="sRGB">
<feFlood flood-opacity="0" result="BackgroundImageFix"/>
<feColorMatrix in="SourceAlpha" type="matrix" values="0 0 0 0 0 0 0 0 0 0 0 0 0 0 0 0 0 0 127 0"/>
<feOffset dy="4"/>
<feGaussianBlur stdDeviation="5.5"/>
<feColorMatrix type="matrix" values="0 0 0 0 0 0 0 0 0 0 0 0 0 0 0 0 0 0 0.19 0"/>
<feBlend mode="normal" in2="BackgroundImageFix" result="effect1_dropShadow"/>
<feBlend mode="normal" in="SourceGraphic" in2="effect1_dropShadow" result="shape"/>
</filter>
<filter id="filter6_d" x="500.512" y="465.81" width="476" height="345" filterUnits="userSpaceOnUse" color-interpolation-filters="sRGB">
<feFlood flood-opacity="0" result="BackgroundImageFix"/>
<feColorMatrix in="SourceAlpha" type="matrix" values="0 0 0 0 0 0 0 0 0 0 0 0 0 0 0 0 0 0 127 0"/>
<feOffset dy="4"/>
<feGaussianBlur stdDeviation="17.5"/>
<feColorMatrix type="matrix" values="0 0 0 0 0 0 0 0 0 0 0 0 0 0 0 0 0 0 0.1 0"/>
<feBlend mode="normal" in2="BackgroundImageFix" result="effect1_dropShadow"/>
<feBlend mode="normal" in="SourceGraphic" in2="effect1_dropShadow" result="shape"/>
</filter>
<linearGradient id="paint0_linear" x1="361.373" y1="301.224" x2="361.373" y2="1009.52" gradientUnits="userSpaceOnUse">
<stop stop-color="#C463FF" stop-opacity="0.22"/>
<stop offset="0.0001" stop-color="#FF6376" stop-opacity="0.25"/>
<stop offset="1" stop-color="#FF6376" stop-opacity="0.1"/>
</linearGradient>
<linearGradient id="paint1_linear" x1="361.373" y1="153.73" x2="361.373" y2="1157.02" gradientUnits="userSpaceOnUse">
<stop stop-color="#FF6376" stop-opacity="0.09"/>
<stop offset="1" stop-color="#FF6376" stop-opacity="0.25"/>
</linearGradient>
<linearGradient id="paint2_linear" x1="528.855" y1="773.226" x2="528.855" y2="849.384" gradientUnits="userSpaceOnUse">
<stop stop-color="#FF6376"/>
<stop offset="1" stop-color="white" stop-opacity="0"/>
</linearGradient>
</defs>
</svg>
