<svg width="1363" height="890" viewBox="0 0 1363 890" fill="none" xmlns="http://www.w3.org/2000/svg">
<circle r="431.012" transform="matrix(0.00876067 -0.999962 -0.999962 -0.00876067 381.772 454.53)" fill="url(#paint0_linear)" fill-opacity="0.05"/>
<circle r="268.518" transform="matrix(0.00876067 -0.999962 -0.999962 -0.00876067 407.751 464.886)" fill="url(#paint1_linear)" fill-opacity="0.05"/>
<g opacity="0.5">
<line x1="0.5" y1="-0.5" x2="838.368" y2="-0.5" transform="matrix(0.971086 0.23873 0.23873 -0.971086 449.234 472.674)" stroke="#7761DF" stroke-linecap="round" stroke-linejoin="round" stroke-dasharray="5 5"/>
<line x1="0.5" y1="-0.5" x2="504.132" y2="-0.5" transform="matrix(0.866006 0.500033 0.500033 -0.866006 447.316 486.24)" stroke="#7761DF" stroke-linecap="round" stroke-linejoin="round" stroke-dasharray="5 5"/>
<line x1="0.5" y1="-0.5" x2="704.212" y2="-0.5" transform="matrix(0.997297 0.0734732 0.0734732 -0.997297 455.051 454.53)" stroke="#7761DF" stroke-linecap="round" stroke-linejoin="round" stroke-dasharray="5 5"/>
<line x1="0.5" y1="-0.5" x2="159.889" y2="-0.5" transform="matrix(0.691732 -0.722155 -0.722155 -0.691732 436.047 385.466)" stroke="#7761DF" stroke-linecap="round" stroke-linejoin="round" stroke-dasharray="5 5"/>
<line x1="0.5" y1="-0.5" x2="393.921" y2="-0.5" transform="matrix(0.814075 -0.58076 -0.58076 -0.814075 444.676 391.045)" stroke="#7761DF" stroke-linecap="round" stroke-linejoin="round" stroke-dasharray="5 5"/>
<line x1="0.5" y1="-0.5" x2="667.839" y2="-0.5" transform="matrix(0.931613 -0.363453 -0.363453 -0.931613 457.453 404.659)" stroke="#7761DF" stroke-linecap="round" stroke-linejoin="round" stroke-dasharray="5 5"/>
<line x1="0.5" y1="-0.5" x2="412.042" y2="-0.5" transform="matrix(0.988477 -0.151373 -0.151373 -0.988477 461.68 423.306)" stroke="#7761DF" stroke-linecap="round" stroke-linejoin="round" stroke-dasharray="5 5"/>
<line x1="0.5" y1="-0.5" x2="143.06" y2="-0.5" transform="matrix(-0.0502221 -0.998738 -0.998738 0.0502221 388.762 379.098)" stroke="#7761DF" stroke-linecap="round" stroke-linejoin="round" stroke-dasharray="5 5"/>
<line x1="0.5" y1="-0.5" x2="336.956" y2="-0.5" transform="matrix(0.419413 -0.907796 -0.907796 -0.419413 405.484 372.896)" stroke="#7761DF" stroke-linecap="round" stroke-linejoin="round" stroke-dasharray="5 5"/>
<line x1="0.5" y1="-0.5" x2="125.254" y2="-0.5" transform="matrix(-0.665061 -0.746789 -0.746789 0.665061 358.32 385.466)" stroke="#7761DF" stroke-linecap="round" stroke-linejoin="round" stroke-dasharray="5 5"/>
<line x1="0.5" y1="-0.5" x2="275.951" y2="-0.5" transform="matrix(-0.903201 -0.429217 -0.429217 0.903201 345.258 404.659)" stroke="#7761DF" stroke-linecap="round" stroke-linejoin="round" stroke-dasharray="5 5"/>
<line x1="0.5" y1="-0.5" x2="200.169" y2="-0.5" transform="matrix(-0.95329 0.302056 0.302056 0.95329 333.926 442.368)" stroke="#7761DF" stroke-linecap="round" stroke-linejoin="round" stroke-dasharray="5 5"/>
<line x1="0.5" y1="-0.5" x2="103.657" y2="-0.5" transform="matrix(-0.968492 -0.249044 -0.249044 0.968492 334.906 422.031)" stroke="#7761DF" stroke-linecap="round" stroke-linejoin="round" stroke-dasharray="5 5"/>
<line x1="0.5" y1="-0.5" x2="131.665" y2="-0.5" transform="matrix(-0.283896 -0.958855 -0.958855 0.283896 455.051 615.025)" stroke="#7761DF" stroke-linecap="round" stroke-linejoin="round" stroke-dasharray="5 5"/>
<line x1="0.5" y1="-0.5" x2="102.873" y2="-0.5" transform="matrix(-0.758465 -0.651714 -0.651714 0.758465 516.875 555.668)" stroke="#7761DF" stroke-linecap="round" stroke-linejoin="round" stroke-dasharray="5 5"/>
<line x1="0.5" y1="-0.5" x2="310.303" y2="-0.5" transform="matrix(-0.633636 -0.773631 -0.773631 0.633636 623.559 738.471)" stroke="#7761DF" stroke-linecap="round" stroke-linejoin="round" stroke-dasharray="5 5"/>
<line x1="0.5" y1="-0.5" x2="80.565" y2="-0.5" transform="matrix(0.427693 -0.903924 -0.903924 -0.427693 328.121 559.517)" stroke="#7761DF" stroke-linecap="round" stroke-linejoin="round" stroke-dasharray="5 5"/>
<line x1="0.5" y1="-0.5" x2="211" y2="-0.5" transform="matrix(0.633884 -0.773428 -0.773428 -0.633884 200.844 628.388)" stroke="#7761DF" stroke-linecap="round" stroke-linejoin="round" stroke-dasharray="5 5"/>
<line x1="0.5" y1="-0.5" x2="199.713" y2="-0.5" transform="matrix(-0.945674 -0.325116 -0.325116 0.945674 636.652 544.098)" stroke="#7761DF" stroke-linecap="round" stroke-linejoin="round" stroke-dasharray="5 5"/>
<path opacity="0.8" d="M100.996 464C124.096 464 142.996 482.9 142.996 506C142.996 529.1 124.096 548 100.996 548C77.8961 548 58.9961 529.1 58.9961 506C58.9961 482.9 77.8961 464 100.996 464ZM100.996 469.25C80.5211 469.25 64.2461 485.525 64.2461 506C64.2461 514.925 67.3961 522.8 72.6461 529.1C74.2211 528.575 75.2711 527.525 76.8461 527.525L88.3961 525.425C89.4461 525.425 90.4961 523.85 90.4961 522.8V520.175C89.9711 519.125 88.9211 517.55 88.3961 516.5C87.8711 515.45 86.8211 513.875 86.2961 513.35C84.1961 511.25 81.5711 508.625 81.0461 504.95C80.5211 501.8 81.0461 500.225 81.5711 498.65C81.5711 495.5 81.5711 491.3 82.6211 488.15C82.6211 483.95 83.6711 481.85 85.2461 479.75C86.8211 478.175 88.3961 478.175 89.9711 477.65C90.4961 477.65 91.5461 477.65 91.5461 477.125C95.2211 475.55 97.8461 474.5 100.996 474.5C107.821 475.025 116.746 479.225 119.371 487.1C120.421 489.2 119.896 493.4 119.896 496.55V498.65C120.946 499.7 121.471 501.275 120.946 504.425C120.421 507.575 117.796 510.2 115.696 512.825C115.171 513.35 114.646 514.925 113.596 515.975C113.071 517.55 112.021 518.6 111.496 519.65V522.275C111.496 523.325 112.546 524.375 113.596 524.9L125.146 527C126.721 527.525 128.296 528.05 129.346 528.575C134.596 522.8 137.746 514.925 137.746 506C137.746 485.525 121.471 469.25 100.996 469.25Z" fill="#FF6376"/>
<path opacity="0.8" d="M464.496 615C487.871 615 506.996 634.125 506.996 657.5C506.996 680.875 487.871 700 464.496 700C441.121 700 421.996 680.875 421.996 657.5C421.996 634.125 441.121 615 464.496 615ZM464.496 620.312C443.777 620.312 427.309 636.781 427.309 657.5C427.309 666.531 430.496 674.5 435.809 680.875C437.402 680.344 438.465 679.281 440.059 679.281L451.746 677.156C452.809 677.156 453.871 675.562 453.871 674.5V671.844C453.34 670.781 452.277 669.187 451.746 668.125C451.215 667.062 450.152 665.469 449.621 664.937C447.496 662.812 444.84 660.156 444.309 656.438C443.777 653.25 444.309 651.656 444.84 650.062C444.84 646.875 444.84 642.625 445.902 639.438C445.902 635.188 446.965 633.062 448.559 630.937C450.152 629.344 451.746 629.344 453.34 628.812C453.871 628.812 454.934 628.812 454.934 628.281C458.652 626.687 461.309 625.625 464.496 625.625C471.402 626.156 480.434 630.406 483.09 638.375C484.152 640.5 483.621 644.75 483.621 647.938V650.062C484.684 651.125 485.215 652.719 484.684 655.906C484.152 659.094 481.496 661.75 479.371 664.406C478.84 664.938 478.309 666.531 477.246 667.594C476.715 669.187 475.652 670.25 475.121 671.313V673.969C475.121 675.031 476.184 676.094 477.246 676.625L488.934 678.75C490.527 679.281 492.121 679.812 493.184 680.344C498.496 674.5 501.684 666.531 501.684 657.5C501.684 636.781 485.215 620.312 464.496 620.312Z" fill="#FFC163"/>
<path opacity="0.8" d="M674.496 521C697.871 521 716.996 539.9 716.996 563C716.996 586.1 697.871 605 674.496 605C651.121 605 631.996 586.1 631.996 563C631.996 539.9 651.121 521 674.496 521ZM674.496 526.25C653.777 526.25 637.309 542.525 637.309 563C637.309 571.925 640.496 579.8 645.809 586.1C647.402 585.575 648.465 584.525 650.059 584.525L661.746 582.425C662.809 582.425 663.871 580.85 663.871 579.8V577.175C663.34 576.125 662.277 574.55 661.746 573.5C661.215 572.45 660.152 570.875 659.621 570.35C657.496 568.25 654.84 565.625 654.309 561.95C653.777 558.8 654.309 557.225 654.84 555.65C654.84 552.5 654.84 548.3 655.902 545.15C655.902 540.95 656.965 538.85 658.559 536.75C660.152 535.175 661.746 535.175 663.34 534.65C663.871 534.65 664.934 534.65 664.934 534.125C668.652 532.55 671.309 531.5 674.496 531.5C681.402 532.025 690.434 536.225 693.09 544.1C694.152 546.2 693.621 550.4 693.621 553.55V555.65C694.684 556.7 695.215 558.275 694.684 561.425C694.152 564.575 691.496 567.2 689.371 569.825C688.84 570.35 688.309 571.925 687.246 572.975C686.715 574.55 685.652 575.6 685.121 576.65V579.275C685.121 580.325 686.184 581.375 687.246 581.9L698.934 584C700.527 584.525 702.121 585.05 703.184 585.575C708.496 579.8 711.684 571.925 711.684 563C711.684 542.525 695.215 526.25 674.496 526.25Z" fill="#FF6376"/>
<path opacity="0.8" d="M570.496 194C593.871 194 612.996 213.125 612.996 236.5C612.996 259.875 593.871 279 570.496 279C547.121 279 527.996 259.875 527.996 236.5C527.996 213.125 547.121 194 570.496 194ZM570.496 199.312C549.777 199.312 533.309 215.781 533.309 236.5C533.309 245.531 536.496 253.5 541.809 259.875C543.402 259.344 544.465 258.281 546.059 258.281L557.746 256.156C558.809 256.156 559.871 254.562 559.871 253.5V250.844C559.34 249.781 558.277 248.187 557.746 247.125C557.215 246.062 556.152 244.469 555.621 243.937C553.496 241.812 550.84 239.156 550.309 235.438C549.777 232.25 550.309 230.656 550.84 229.062C550.84 225.875 550.84 221.625 551.902 218.438C551.902 214.188 552.965 212.062 554.559 209.937C556.152 208.344 557.746 208.344 559.34 207.812C559.871 207.812 560.934 207.812 560.934 207.281C564.652 205.687 567.309 204.625 570.496 204.625C577.402 205.156 586.434 209.406 589.09 217.375C590.152 219.5 589.621 223.75 589.621 226.938V229.062C590.684 230.125 591.215 231.719 590.684 234.906C590.152 238.094 587.496 240.75 585.371 243.406C584.84 243.938 584.309 245.531 583.246 246.594C582.715 248.187 581.652 249.25 581.121 250.313V252.969C581.121 254.031 582.184 255.094 583.246 255.625L594.934 257.75C596.527 258.281 598.121 258.812 599.184 259.344C604.496 253.5 607.684 245.531 607.684 236.5C607.684 215.781 591.215 199.312 570.496 199.312Z" fill="#FFC163"/>
<path opacity="0.8" d="M57.9961 224C81.6461 224 100.996 243.35 100.996 267C100.996 290.65 81.6461 310 57.9961 310C34.3461 310 14.9961 290.65 14.9961 267C14.9961 243.35 34.3461 224 57.9961 224ZM57.9961 229.375C37.0336 229.375 20.3711 246.038 20.3711 267C20.3711 276.138 23.5961 284.2 28.9711 290.65C30.5836 290.112 31.6586 289.038 33.2711 289.038L45.0961 286.887C46.1711 286.887 47.2461 285.275 47.2461 284.2V281.512C46.7086 280.437 45.6336 278.825 45.0961 277.75C44.5586 276.675 43.4836 275.062 42.9461 274.525C40.7961 272.375 38.1086 269.688 37.5711 265.925C37.0336 262.7 37.5711 261.087 38.1086 259.475C38.1086 256.25 38.1086 251.95 39.1836 248.725C39.1836 244.425 40.2586 242.275 41.8711 240.125C43.4836 238.512 45.0961 238.512 46.7086 237.975C47.2461 237.975 48.3211 237.975 48.3211 237.437C52.0836 235.825 54.7711 234.75 57.9961 234.75C64.9836 235.287 74.1211 239.588 76.8086 247.65C77.8836 249.8 77.3461 254.1 77.3461 257.325V259.475C78.4211 260.55 78.9586 262.162 78.4211 265.388C77.8836 268.612 75.1961 271.3 73.0461 273.987C72.5086 274.525 71.9711 276.137 70.8961 277.212C70.3586 278.825 69.2836 279.9 68.7461 280.975V283.663C68.7461 284.738 69.8211 285.813 70.8961 286.35L82.7211 288.5C84.3336 289.037 85.9461 289.575 87.0211 290.112C92.3961 284.2 95.6211 276.138 95.6211 267C95.6211 246.038 78.9586 229.375 57.9961 229.375Z" fill="#FF6376"/>
<path opacity="0.9" d="M381.496 130C409.271 130 431.996 152.95 431.996 181C431.996 209.05 409.271 232 381.496 232C353.721 232 330.996 209.05 330.996 181C330.996 152.95 353.721 130 381.496 130ZM381.496 136.375C356.877 136.375 337.309 156.138 337.309 181C337.309 191.838 341.096 201.4 347.409 209.05C349.302 208.412 350.565 207.138 352.459 207.138L366.346 204.588C367.609 204.588 368.871 202.675 368.871 201.4V198.213C368.24 196.938 366.977 195.025 366.346 193.75C365.715 192.475 364.452 190.562 363.821 189.925C361.296 187.375 358.14 184.188 357.509 179.725C356.877 175.9 357.509 173.987 358.14 172.075C358.14 168.25 358.14 163.15 359.402 159.325C359.402 154.225 360.665 151.675 362.559 149.125C364.452 147.212 366.346 147.212 368.24 146.575C368.871 146.575 370.134 146.575 370.134 145.938C374.552 144.025 377.709 142.75 381.496 142.75C389.702 143.387 400.434 148.488 403.59 158.05C404.852 160.6 404.221 165.7 404.221 169.525V172.075C405.484 173.35 406.115 175.263 405.484 179.088C404.852 182.913 401.696 186.1 399.171 189.288C398.54 189.925 397.909 191.837 396.646 193.112C396.015 195.025 394.752 196.3 394.121 197.575V200.763C394.121 202.038 395.384 203.313 396.646 203.95L410.534 206.5C412.427 207.137 414.321 207.775 415.584 208.412C421.896 201.4 425.684 191.838 425.684 181C425.684 156.138 406.115 136.375 381.496 136.375Z" fill="#FF6376"/>
<path opacity="0.6" d="M254.496 233C272.921 233 287.996 248.3 287.996 267C287.996 285.7 272.921 301 254.496 301C236.071 301 220.996 285.7 220.996 267C220.996 248.3 236.071 233 254.496 233ZM254.496 237.25C238.165 237.25 225.184 250.425 225.184 267C225.184 274.225 227.696 280.6 231.884 285.7C233.14 285.275 233.977 284.425 235.234 284.425L244.446 282.725C245.284 282.725 246.121 281.45 246.121 280.6V278.05C236.909 277.2 235.652 275.075 235.652 273.375C235.652 267.85 239.421 254.25 239.84 252.125C239.84 248.725 240.677 247.025 241.934 245.325C243.19 244.05 244.446 244.05 245.702 243.625C246.121 243.625 246.959 243.625 246.959 243.2C249.89 242.35 251.984 241.5 254.496 241.5C259.94 241.925 266.64 245.325 269.152 251.7C269.152 252.125 273.34 266.575 273.34 273.375C273.34 275.925 270.409 277.625 262.871 278.05V280.175C262.871 281.025 263.709 281.875 264.546 282.3L273.759 284C275.015 284.425 276.271 284.85 277.109 285.275C281.296 280.6 283.809 274.225 283.809 267C283.809 250.425 270.827 237.25 254.496 237.25Z" fill="#FFC163"/>
<path opacity="0.15" d="M468.996 288C480.546 288 489.996 297.675 489.996 309.5C489.996 321.325 480.546 331 468.996 331C457.446 331 447.996 321.325 447.996 309.5C447.996 297.675 457.446 288 468.996 288ZM468.996 290.688C458.759 290.688 450.621 299.019 450.621 309.5C450.621 314.069 452.196 318.1 454.821 321.325C455.609 321.056 456.134 320.519 456.921 320.519L462.696 319.444C463.221 319.444 463.746 318.637 463.746 318.1V316.488C457.971 315.95 457.184 314.606 457.184 313.531C457.184 310.038 459.546 301.438 459.809 300.094C459.809 297.944 460.334 296.869 461.121 295.794C461.909 294.988 462.696 294.988 463.484 294.719C463.746 294.719 464.271 294.719 464.271 294.45C466.109 293.913 467.421 293.375 468.996 293.375C472.409 293.644 476.609 295.794 478.184 299.825C478.184 300.094 480.809 309.231 480.809 313.531C480.809 315.144 478.971 316.219 474.246 316.488V317.831C474.246 318.369 474.771 318.906 475.296 319.175L481.071 320.25C481.859 320.519 482.646 320.788 483.171 321.056C485.796 318.1 487.371 314.069 487.371 309.5C487.371 299.019 479.234 290.688 468.996 290.688Z" fill="#63FFC0"/>
<path opacity="0.4" d="M606.496 412C620.521 412 631.996 423.7 631.996 438C631.996 452.3 620.521 464 606.496 464C592.471 464 580.996 452.3 580.996 438C580.996 423.7 592.471 412 606.496 412ZM606.496 415.25C594.065 415.25 584.184 425.325 584.184 438C584.184 443.525 586.096 448.4 589.284 452.3C590.24 451.975 590.877 451.325 591.834 451.325L598.846 450.025C599.484 450.025 600.121 449.05 600.121 448.4V446.45C593.109 445.8 592.152 444.175 592.152 442.875C592.152 438.65 595.021 428.25 595.34 426.625C595.34 424.025 595.977 422.725 596.934 421.425C597.89 420.45 598.846 420.45 599.802 420.125C600.121 420.125 600.759 420.125 600.759 419.8C602.99 419.15 604.584 418.5 606.496 418.5C610.64 418.825 615.74 421.425 617.652 426.3C617.652 426.625 620.84 437.675 620.84 442.875C620.84 444.825 618.609 446.125 612.871 446.45V448.075C612.871 448.725 613.509 449.375 614.146 449.7L621.159 451C622.115 451.325 623.071 451.65 623.709 451.975C626.896 448.4 628.809 443.525 628.809 438C628.809 425.325 618.927 415.25 606.496 415.25Z" fill="#FFC163"/>
<path opacity="0.4" d="M321.496 557C339.921 557 354.996 572.075 354.996 590.5C354.996 608.925 339.921 624 321.496 624C303.071 624 287.996 608.925 287.996 590.5C287.996 572.075 303.071 557 321.496 557ZM321.496 561.188C305.165 561.188 292.184 574.169 292.184 590.5C292.184 597.619 294.696 603.9 298.884 608.925C300.14 608.506 300.977 607.669 302.234 607.669L311.446 605.994C312.284 605.994 313.121 604.737 313.121 603.9V601.388C303.909 600.55 302.652 598.456 302.652 596.781C302.652 591.338 306.421 577.938 306.84 575.844C306.84 572.494 307.677 570.819 308.934 569.144C310.19 567.888 311.446 567.887 312.702 567.469C313.121 567.469 313.959 567.469 313.959 567.05C316.89 566.213 318.984 565.375 321.496 565.375C326.94 565.794 333.64 569.144 336.152 575.425C336.152 575.844 340.34 590.081 340.34 596.781C340.34 599.294 337.409 600.969 329.871 601.388V603.481C329.871 604.319 330.709 605.156 331.546 605.575L340.759 607.25C342.015 607.669 343.271 608.087 344.109 608.506C348.296 603.9 350.809 597.619 350.809 590.5C350.809 574.169 337.827 561.188 321.496 561.188Z" fill="#51DBEE"/>
<path d="M187.496 624C205.921 624 220.996 639.075 220.996 657.5C220.996 675.925 205.921 691 187.496 691C169.071 691 153.996 675.925 153.996 657.5C153.996 639.075 169.071 624 187.496 624ZM187.496 628.188C171.165 628.188 158.184 641.169 158.184 657.5C158.184 664.619 160.696 670.9 164.884 675.925C166.14 675.506 166.977 674.669 168.234 674.669L177.446 672.994C178.284 672.994 179.121 671.737 179.121 670.9V668.388C169.909 667.55 168.652 665.456 168.652 663.781C168.652 658.338 172.421 644.938 172.84 642.844C172.84 639.494 173.677 637.819 174.934 636.144C176.19 634.888 177.446 634.887 178.702 634.469C179.121 634.469 179.959 634.469 179.959 634.05C182.89 633.213 184.984 632.375 187.496 632.375C192.94 632.794 199.64 636.144 202.152 642.425C202.152 642.844 206.34 657.081 206.34 663.781C206.34 666.294 203.409 667.969 195.871 668.388V670.481C195.871 671.319 196.709 672.156 197.546 672.575L206.759 674.25C208.015 674.669 209.271 675.088 210.109 675.506C214.296 670.9 216.809 664.619 216.809 657.5C216.809 641.169 203.827 628.188 187.496 628.188Z" fill="#FFC163"/>
<path opacity="0.6" d="M684.996 301C703.696 301 718.996 316.075 718.996 334.5C718.996 352.925 703.696 368 684.996 368C666.296 368 650.996 352.925 650.996 334.5C650.996 316.075 666.296 301 684.996 301ZM684.996 305.188C668.421 305.188 655.246 318.169 655.246 334.5C655.246 341.619 657.796 347.9 662.046 352.925C663.321 352.506 664.171 351.669 665.446 351.669L674.796 349.994C675.646 349.994 676.496 348.737 676.496 347.9V345.388C667.146 344.55 665.871 342.456 665.871 340.781C665.871 335.338 669.696 321.938 670.121 319.844C670.121 316.494 670.971 314.819 672.246 313.144C673.521 311.888 674.796 311.887 676.071 311.469C676.496 311.469 677.346 311.469 677.346 311.05C680.321 310.213 682.446 309.375 684.996 309.375C690.521 309.794 697.321 313.144 699.871 319.425C699.871 319.844 704.121 334.081 704.121 340.781C704.121 343.294 701.146 344.969 693.496 345.388V347.481C693.496 348.319 694.346 349.156 695.196 349.575L704.546 351.25C705.821 351.669 707.096 352.088 707.946 352.506C712.196 347.9 714.746 341.619 714.746 334.5C714.746 318.169 701.571 305.188 684.996 305.188Z" fill="#51DBEE"/>
<path opacity="0.6" d="M840.496 409C858.921 409 873.996 424.075 873.996 442.5C873.996 460.925 858.921 476 840.496 476C822.071 476 806.996 460.925 806.996 442.5C806.996 424.075 822.071 409 840.496 409ZM840.496 413.188C824.165 413.188 811.184 426.169 811.184 442.5C811.184 449.619 813.696 455.9 817.884 460.925C819.14 460.506 819.977 459.669 821.234 459.669L830.446 457.994C831.284 457.994 832.121 456.737 832.121 455.9V453.388C822.909 452.55 821.652 450.456 821.652 448.781C821.652 443.338 825.421 429.938 825.84 427.844C825.84 424.494 826.677 422.819 827.934 421.144C829.19 419.888 830.446 419.887 831.702 419.469C832.121 419.469 832.959 419.469 832.959 419.05C835.89 418.213 837.984 417.375 840.496 417.375C845.94 417.794 852.64 421.144 855.152 427.425C855.152 427.844 859.34 442.081 859.34 448.781C859.34 451.294 856.409 452.969 848.871 453.388V455.481C848.871 456.319 849.709 457.156 850.546 457.575L859.759 459.25C861.015 459.669 862.271 460.087 863.109 460.506C867.296 455.9 869.809 449.619 869.809 442.5C869.809 426.169 856.827 413.188 840.496 413.188Z" fill="#51DBEE"/>
<path opacity="0.6" d="M907.996 313C929.446 313 946.996 330.325 946.996 351.5C946.996 372.675 929.446 390 907.996 390C886.546 390 868.996 372.675 868.996 351.5C868.996 330.325 886.546 313 907.996 313ZM907.996 317.812C888.984 317.812 873.871 332.731 873.871 351.5C873.871 359.681 876.796 366.9 881.671 372.675C883.134 372.194 884.109 371.231 885.571 371.231L896.296 369.306C897.271 369.306 898.246 367.862 898.246 366.9V364.013C887.521 363.05 886.059 360.644 886.059 358.719C886.059 352.462 890.446 337.062 890.934 334.656C890.934 330.806 891.909 328.881 893.371 326.956C894.834 325.513 896.296 325.512 897.759 325.031C898.246 325.031 899.221 325.031 899.221 324.55C902.634 323.588 905.071 322.625 907.996 322.625C914.334 323.106 922.134 326.956 925.059 334.175C925.059 334.656 929.934 351.019 929.934 358.719C929.934 361.606 926.521 363.531 917.746 364.013V366.419C917.746 367.381 918.721 368.344 919.696 368.825L930.421 370.75C931.884 371.231 933.346 371.712 934.321 372.194C939.196 366.9 942.121 359.681 942.121 351.5C942.121 332.731 927.009 317.812 907.996 317.812Z" fill="#FFC163"/>
<path opacity="0.6" d="M929.496 716C960.021 716 984.996 740.525 984.996 770.5C984.996 800.475 960.021 825 929.496 825C898.971 825 873.996 800.475 873.996 770.5C873.996 740.525 898.971 716 929.496 716ZM929.496 722.812C902.44 722.812 880.934 743.931 880.934 770.5C880.934 782.081 885.096 792.3 892.034 800.475C894.115 799.794 895.502 798.431 897.584 798.431L912.846 795.706C914.234 795.706 915.621 793.662 915.621 792.3V788.213C900.359 786.85 898.277 783.444 898.277 780.719C898.277 771.862 904.521 750.062 905.215 746.656C905.215 741.206 906.602 738.481 908.684 735.756C910.765 733.712 912.846 733.712 914.927 733.031C915.621 733.031 917.009 733.031 917.009 732.35C921.865 730.988 925.334 729.625 929.496 729.625C938.515 730.306 949.615 735.756 953.777 745.975C953.777 746.656 960.715 769.819 960.715 780.719C960.715 784.806 955.859 787.531 943.371 788.213V791.619C943.371 792.981 944.759 794.344 946.146 795.025L961.409 797.75C963.49 798.431 965.571 799.113 966.959 799.794C973.896 792.3 978.059 782.081 978.059 770.5C978.059 743.931 956.552 722.812 929.496 722.812Z" fill="#51DBEE"/>
<path opacity="0.2" d="M1199 470C1222.1 470 1241 488.675 1241 511.5C1241 534.325 1222.1 553 1199 553C1175.9 553 1157 534.325 1157 511.5C1157 488.675 1175.9 470 1199 470ZM1199 475.188C1178.52 475.188 1162.25 491.269 1162.25 511.5C1162.25 520.319 1165.4 528.1 1170.65 534.325C1172.22 533.806 1173.27 532.769 1174.85 532.769L1186.4 530.694C1187.45 530.694 1188.5 529.138 1188.5 528.1V524.988C1176.95 523.95 1175.37 521.356 1175.37 519.281C1175.37 512.537 1180.1 495.938 1180.62 493.344C1180.62 489.194 1181.67 487.119 1183.25 485.044C1184.82 483.488 1186.4 483.488 1187.97 482.969C1188.5 482.969 1189.55 482.969 1189.55 482.45C1193.22 481.413 1195.85 480.375 1199 480.375C1205.82 480.894 1214.22 485.044 1217.37 492.825C1217.37 493.344 1222.62 510.981 1222.62 519.281C1222.62 522.394 1218.95 524.469 1209.5 524.988V527.581C1209.5 528.619 1210.55 529.656 1211.6 530.175L1223.15 532.25C1224.72 532.769 1226.3 533.288 1227.35 533.806C1232.6 528.1 1235.75 520.319 1235.75 511.5C1235.75 491.269 1219.47 475.188 1199 475.188Z" fill="#FFC163"/>
<path opacity="0.6" d="M561.996 0C580.696 0 595.996 14.85 595.996 33C595.996 51.15 580.696 66 561.996 66C543.296 66 527.996 51.15 527.996 33C527.996 14.85 543.296 0 561.996 0ZM561.996 4.125C545.421 4.125 532.246 16.9125 532.246 33C532.246 40.0125 534.796 46.2 539.046 51.15C540.321 50.7375 541.171 49.9125 542.446 49.9125L551.796 48.2625C552.646 48.2625 553.496 47.025 553.496 46.2V43.725C544.146 42.9 542.871 40.8375 542.871 39.1875C542.871 33.825 546.696 20.625 547.121 18.5625C547.121 15.2625 547.971 13.6125 549.246 11.9625C550.521 10.725 551.796 10.725 553.071 10.3125C553.496 10.3125 554.346 10.3125 554.346 9.9C557.321 9.075 559.446 8.25 561.996 8.25C567.521 8.6625 574.321 11.9625 576.871 18.15C576.871 18.5625 581.121 32.5875 581.121 39.1875C581.121 41.6625 578.146 43.3125 570.496 43.725V45.7875C570.496 46.6125 571.346 47.4375 572.196 47.85L581.546 49.5C582.821 49.9125 584.096 50.325 584.946 50.7375C589.196 46.2 591.746 40.0125 591.746 33C591.746 16.9125 578.571 4.125 561.996 4.125Z" fill="#51DBEE"/>
<path opacity="0.6" d="M980.496 34C998.921 34 1014 49.075 1014 67.5C1014 85.925 998.921 101 980.496 101C962.071 101 946.996 85.925 946.996 67.5C946.996 49.075 962.071 34 980.496 34ZM980.496 38.1875C964.165 38.1875 951.184 51.1687 951.184 67.5C951.184 74.6188 953.696 80.9 957.884 85.925C959.14 85.5062 959.977 84.6688 961.234 84.6688L970.446 82.9937C971.284 82.9937 972.121 81.7375 972.121 80.9V78.3875C962.909 77.55 961.652 75.4562 961.652 73.7812C961.652 68.3375 965.421 54.9375 965.84 52.8438C965.84 49.4937 966.677 47.8188 967.934 46.1438C969.19 44.8875 970.446 44.8875 971.702 44.4688C972.121 44.4688 972.959 44.4688 972.959 44.05C975.89 43.2125 977.984 42.375 980.496 42.375C985.94 42.7937 992.64 46.1438 995.152 52.425C995.152 52.8438 999.34 67.0812 999.34 73.7812C999.34 76.2938 996.409 77.9688 988.871 78.3875V80.4813C988.871 81.3188 989.709 82.1562 990.546 82.575L999.759 84.25C1001.01 84.6688 1002.27 85.0875 1003.11 85.5063C1007.3 80.9 1009.81 74.6188 1009.81 67.5C1009.81 51.1687 996.827 38.1875 980.496 38.1875Z" fill="#FFC163"/>
<path d="M399.996 373C435.746 373 464.996 402.25 464.996 438C464.996 473.75 435.746 503 399.996 503C364.246 503 334.996 473.75 334.996 438C334.996 402.25 364.246 373 399.996 373ZM399.996 381.125C368.309 381.125 343.121 406.312 343.121 438C343.121 451.812 347.996 464 356.121 473.75C358.559 472.938 360.184 471.313 362.621 471.313L380.496 468.062C382.121 468.062 383.746 465.625 383.746 464V459.125C365.871 457.5 363.434 453.438 363.434 450.188C363.434 439.625 370.746 413.625 371.559 409.562C371.559 403.062 373.184 399.813 375.621 396.563C378.059 394.125 380.496 394.125 382.934 393.312C383.746 393.312 385.371 393.313 385.371 392.5C391.059 390.875 395.121 389.25 399.996 389.25C410.559 390.062 423.559 396.563 428.434 408.75C428.434 409.563 436.559 437.188 436.559 450.188C436.559 455.062 430.871 458.312 416.246 459.125V463.188C416.246 464.813 417.871 466.438 419.496 467.25L437.371 470.5C439.809 471.313 442.246 472.125 443.871 472.938C451.996 464 456.871 451.812 456.871 438C456.871 406.312 431.684 381.125 399.996 381.125Z" fill="#7761DF"/>
<path opacity="0.3" d="M200.496 352C218.921 352 233.996 367.075 233.996 385.5C233.996 403.925 218.921 419 200.496 419C182.071 419 166.996 403.925 166.996 385.5C166.996 367.075 182.071 352 200.496 352ZM200.496 356.188C184.165 356.188 171.184 369.169 171.184 385.5C171.184 392.619 173.696 398.9 177.884 403.925C179.14 403.506 179.977 402.669 181.234 402.669L190.446 400.994C191.284 400.994 192.121 399.737 192.121 398.9V396.388C182.909 395.55 181.652 393.456 181.652 391.781C181.652 386.338 185.421 372.938 185.84 370.844C185.84 367.494 186.677 365.819 187.934 364.144C189.19 362.888 190.446 362.887 191.702 362.469C192.121 362.469 192.959 362.469 192.959 362.05C195.89 361.213 197.984 360.375 200.496 360.375C205.94 360.794 212.64 364.144 215.152 370.425C215.152 370.844 219.34 385.081 219.34 391.781C219.34 394.294 216.409 395.969 208.871 396.388V398.481C208.871 399.319 209.709 400.156 210.546 400.575L219.759 402.25C221.015 402.669 222.271 403.088 223.109 403.506C227.296 398.9 229.809 392.619 229.809 385.5C229.809 369.169 216.827 356.188 200.496 356.188Z" fill="#51DBEE"/>
<path opacity="0.2" d="M533.996 549C546.646 549 556.996 559.8 556.996 573C556.996 586.2 546.646 597 533.996 597C521.346 597 510.996 586.2 510.996 573C510.996 559.8 521.346 549 533.996 549ZM533.996 552C522.784 552 513.871 561.3 513.871 573C513.871 578.1 515.596 582.6 518.471 586.2C519.334 585.9 519.909 585.3 520.771 585.3L527.096 584.1C527.671 584.1 528.246 583.2 528.246 582.6V581.1C527.959 580.5 527.384 579.6 527.096 579C526.809 578.4 526.234 577.5 525.946 577.2C524.796 576 523.359 574.5 523.071 572.4C522.784 570.6 523.071 569.7 523.359 568.8C523.359 567 523.359 564.6 523.934 562.8C523.934 560.4 524.509 559.2 525.371 558C526.234 557.1 527.096 557.1 527.959 556.8C528.246 556.8 528.821 556.8 528.821 556.5C530.834 555.6 532.271 555 533.996 555C537.734 555.3 542.621 557.7 544.059 562.2C544.634 563.4 544.346 565.8 544.346 567.6V568.8C544.921 569.4 545.209 570.3 544.921 572.1C544.634 573.9 543.196 575.4 542.046 576.9C541.759 577.2 541.471 578.1 540.896 578.7C540.609 579.6 540.034 580.2 539.746 580.8V582.3C539.746 582.9 540.321 583.5 540.896 583.8L547.221 585C548.084 585.3 548.946 585.6 549.521 585.9C552.396 582.6 554.121 578.1 554.121 573C554.121 561.3 545.209 552 533.996 552Z" fill="#51DBEE"/>
<path opacity="0.8" d="M813.496 93C841.271 93 863.996 115.725 863.996 143.5C863.996 171.275 841.271 194 813.496 194C785.721 194 762.996 171.275 762.996 143.5C762.996 115.725 785.721 93 813.496 93ZM813.496 99.3125C788.877 99.3125 769.309 118.881 769.309 143.5C769.309 154.231 773.096 163.7 779.409 171.275C781.302 170.644 782.565 169.381 784.459 169.381L798.346 166.856C799.609 166.856 800.871 164.962 800.871 163.7V160.544C800.24 159.281 798.977 157.387 798.346 156.125C797.715 154.862 796.452 152.969 795.821 152.337C793.296 149.812 790.14 146.656 789.509 142.237C788.877 138.45 789.509 136.556 790.14 134.662C790.14 130.875 790.14 125.825 791.402 122.038C791.402 116.988 792.665 114.462 794.559 111.938C796.452 110.044 798.346 110.044 800.24 109.412C800.871 109.412 802.134 109.412 802.134 108.781C806.552 106.887 809.709 105.625 813.496 105.625C821.702 106.256 832.434 111.306 835.59 120.775C836.852 123.3 836.221 128.35 836.221 132.138V134.662C837.484 135.925 838.115 137.819 837.484 141.606C836.852 145.394 833.696 148.55 831.171 151.706C830.54 152.338 829.909 154.231 828.646 155.494C828.015 157.387 826.752 158.65 826.121 159.913V163.069C826.121 164.331 827.384 165.594 828.646 166.225L842.534 168.75C844.427 169.381 846.321 170.012 847.584 170.644C853.896 163.7 857.684 154.231 857.684 143.5C857.684 118.881 838.115 99.3125 813.496 99.3125Z" fill="#FF6376"/>
<path opacity="0.9" d="M874.996 615C888.746 615 899.996 626.25 899.996 640C899.996 653.75 888.746 665 874.996 665C861.246 665 849.996 653.75 849.996 640C849.996 626.25 861.246 615 874.996 615ZM874.996 618.125C862.809 618.125 853.121 627.812 853.121 640C853.121 645.312 854.996 650 858.121 653.75C859.059 653.438 859.684 652.812 860.621 652.812L867.496 651.562C868.121 651.562 868.746 650.625 868.746 650V648.437C868.434 647.812 867.809 646.875 867.496 646.25C867.184 645.625 866.559 644.687 866.246 644.375C864.996 643.125 863.434 641.562 863.121 639.375C862.809 637.5 863.121 636.562 863.434 635.625C863.434 633.75 863.434 631.25 864.059 629.375C864.059 626.875 864.684 625.625 865.621 624.375C866.559 623.437 867.496 623.437 868.434 623.125C868.746 623.125 869.371 623.125 869.371 622.812C871.559 621.875 873.121 621.25 874.996 621.25C879.059 621.562 884.371 624.062 885.934 628.75C886.559 630 886.246 632.5 886.246 634.375V635.625C886.871 636.25 887.184 637.188 886.871 639.062C886.559 640.938 884.996 642.5 883.746 644.062C883.434 644.375 883.121 645.312 882.496 645.937C882.184 646.875 881.559 647.5 881.246 648.125V649.688C881.246 650.312 881.871 650.938 882.496 651.25L889.371 652.5C890.309 652.812 891.246 653.125 891.871 653.438C894.996 650 896.871 645.312 896.871 640C896.871 627.812 887.184 618.125 874.996 618.125Z" fill="#FFC163"/>
<path opacity="0.9" d="M1310 640C1339.15 640 1363 664.075 1363 693.5C1363 722.925 1339.15 747 1310 747C1280.85 747 1257 722.925 1257 693.5C1257 664.075 1280.85 640 1310 640ZM1310 646.688C1284.16 646.688 1263.62 667.419 1263.62 693.5C1263.62 704.869 1267.6 714.9 1274.22 722.925C1276.21 722.256 1277.53 720.919 1279.52 720.919L1294.1 718.244C1295.42 718.244 1296.75 716.237 1296.75 714.9V711.556C1296.08 710.219 1294.76 708.212 1294.1 706.875C1293.43 705.537 1292.11 703.531 1291.45 702.862C1288.8 700.187 1285.48 696.844 1284.82 692.162C1284.16 688.15 1284.82 686.144 1285.48 684.138C1285.48 680.125 1285.48 674.775 1286.81 670.763C1286.81 665.413 1288.13 662.737 1290.12 660.062C1292.11 658.056 1294.1 658.056 1296.08 657.387C1296.75 657.387 1298.07 657.387 1298.07 656.719C1302.71 654.712 1306.02 653.375 1310 653.375C1318.61 654.044 1329.87 659.394 1333.18 669.425C1334.51 672.1 1333.85 677.45 1333.85 681.462V684.138C1335.17 685.475 1335.83 687.481 1335.17 691.494C1334.51 695.506 1331.2 698.85 1328.55 702.194C1327.88 702.862 1327.22 704.869 1325.9 706.206C1325.23 708.212 1323.91 709.55 1323.25 710.888V714.231C1323.25 715.569 1324.57 716.906 1325.9 717.575L1340.47 720.25C1342.46 720.919 1344.45 721.588 1345.77 722.256C1352.4 714.9 1356.37 704.869 1356.37 693.5C1356.37 667.419 1335.83 646.688 1310 646.688Z" fill="#FF6376"/>
<path opacity="0.9" d="M647.496 731C670.871 731 689.996 749.9 689.996 773C689.996 796.1 670.871 815 647.496 815C624.121 815 604.996 796.1 604.996 773C604.996 749.9 624.121 731 647.496 731ZM647.496 736.25C626.777 736.25 610.309 752.525 610.309 773C610.309 781.925 613.496 789.8 618.809 796.1C620.402 795.575 621.465 794.525 623.059 794.525L634.746 792.425C635.809 792.425 636.871 790.85 636.871 789.8V787.175C636.34 786.125 635.277 784.55 634.746 783.5C634.215 782.45 633.152 780.875 632.621 780.35C630.496 778.25 627.84 775.625 627.309 771.95C626.777 768.8 627.309 767.225 627.84 765.65C627.84 762.5 627.84 758.3 628.902 755.15C628.902 750.95 629.965 748.85 631.559 746.75C633.152 745.175 634.746 745.175 636.34 744.65C636.871 744.65 637.934 744.65 637.934 744.125C641.652 742.55 644.309 741.5 647.496 741.5C654.402 742.025 663.434 746.225 666.09 754.1C667.152 756.2 666.621 760.4 666.621 763.55V765.65C667.684 766.7 668.215 768.275 667.684 771.425C667.152 774.575 664.496 777.2 662.371 779.825C661.84 780.35 661.309 781.925 660.246 782.975C659.715 784.55 658.652 785.6 658.121 786.65V789.275C658.121 790.325 659.184 791.375 660.246 791.9L671.934 794C673.527 794.525 675.121 795.05 676.184 795.575C681.496 789.8 684.684 781.925 684.684 773C684.684 752.525 668.215 736.25 647.496 736.25Z" fill="#FFC163"/>
<path opacity="0.9" d="M1120.5 100C1144.42 100 1164 119.575 1164 143.5C1164 167.425 1144.42 187 1120.5 187C1096.57 187 1077 167.425 1077 143.5C1077 119.575 1096.57 100 1120.5 100ZM1120.5 105.438C1099.29 105.438 1082.43 122.294 1082.43 143.5C1082.43 152.744 1085.7 160.9 1091.13 167.425C1092.76 166.881 1093.85 165.794 1095.48 165.794L1107.45 163.619C1108.53 163.619 1109.62 161.987 1109.62 160.9V158.181C1109.08 157.094 1107.99 155.462 1107.45 154.375C1106.9 153.287 1105.81 151.656 1105.27 151.112C1103.1 148.938 1100.38 146.219 1099.83 142.413C1099.29 139.15 1099.83 137.519 1100.38 135.888C1100.38 132.625 1100.38 128.275 1101.46 125.013C1101.46 120.663 1102.55 118.487 1104.18 116.312C1105.81 114.681 1107.45 114.681 1109.08 114.137C1109.62 114.137 1110.71 114.137 1110.71 113.594C1114.51 111.962 1117.23 110.875 1120.5 110.875C1127.56 111.419 1136.81 115.769 1139.53 123.925C1140.61 126.1 1140.07 130.45 1140.07 133.713V135.888C1141.16 136.975 1141.7 138.606 1141.16 141.869C1140.61 145.131 1137.9 147.85 1135.72 150.569C1135.18 151.113 1134.63 152.744 1133.55 153.831C1133 155.462 1131.91 156.55 1131.37 157.638V160.356C1131.37 161.444 1132.46 162.531 1133.55 163.075L1145.51 165.25C1147.14 165.794 1148.77 166.338 1149.86 166.881C1155.3 160.9 1158.56 152.744 1158.56 143.5C1158.56 122.294 1141.7 105.438 1120.5 105.438Z" fill="#51DBEE"/>
</g>
<defs>
<linearGradient id="paint0_linear" x1="431.012" y1="0" x2="431.012" y2="862.024" gradientUnits="userSpaceOnUse">
<stop stop-color="#7761DF"/>
<stop offset="1" stop-color="#7761DF" stop-opacity="0"/>
</linearGradient>
<linearGradient id="paint1_linear" x1="268.518" y1="0" x2="268.518" y2="537.036" gradientUnits="userSpaceOnUse">
<stop stop-color="#7761DF"/>
<stop offset="1" stop-color="#7761DF" stop-opacity="0"/>
</linearGradient>
</defs>
</svg>
